<svg version="1.1" xmlns="http://www.w3.org/2000/svg" xmlns:xlink="http://www.w3.org/1999/xlink" x="0px" y="0px" viewBox="0 0 365.7 365.7" xml:space="preserve">
	<g fill="#DA383F">
		<path d="M64.9,182.9L95,152.7c3.3-3.3,3.3-8.7,0-12.1l-4-4c-3.3-3.3-8.7-3.3-12.1,0l-30.2,30.2l-30.2-30.2 c-3.3-3.3-8.7-3.3-12.1,0l-4,4c-3.3,3.3-3.3,8.7,0,12.1l30.2,30.2L2.5,213c-3.3,3.3-3.3,8.7,0,12.1l4,4c3.3,3.3,8.7,3.3,12.1,0 l30.2-30.2l30.2,30.2c3.3,3.3,8.7,3.3,12.1,0l4-4c3.3-3.3,3.3-8.7,0-12.1L64.9,182.9z"/>
		<path d="M198.9,182.9l30.2-30.2c3.3-3.3,3.3-8.7,0-12.1l-4-4c-3.3-3.3-8.7-3.3-12.1,0l-30.2,30.2l-30.2-30.2 c-3.3-3.3-8.7-3.3-12.1,0l-4,4c-3.3,3.3-3.3,8.7,0,12.1l30.2,30.2L136.6,213c-3.3,3.3-3.3,8.7,0,12.1l4,4c3.3,3.3,8.7,3.3,12.1,0 l30.2-30.2l30.2,30.2c3.3,3.3,8.7,3.3,12.1,0l4-4c3.3-3.3,3.3-8.7,0-12.1L198.9,182.9z"/>
		<path d="M333,182.9l30.2-30.2c3.3-3.3,3.3-8.7,0-12.1l-4-4c-3.3-3.3-8.7-3.3-12.1,0l-30.2,30.2l-30.2-30.2 c-3.3-3.3-8.7-3.3-12.1,0l-4,4c-3.3,3.3-3.3,8.7,0,12.1l30.2,30.2L270.7,213c-3.3,3.3-3.3,8.7,0,12.1l4,4c3.3,3.3,8.7,3.3,12.1,0 l30.2-30.2l30.2,30.2c3.3,3.3,8.7,3.3,12.1,0l4-4c3.3-3.3,3.3-8.7,0-12.1L333,182.9z"/>
	</g>
</svg>
