<svg version="1.1" xmlns="http://www.w3.org/2000/svg" xmlns:xlink="http://www.w3.org/1999/xlink" x="0px" y="0px" viewBox="0 0 444.8 444.8" xml:space="preserve">
  <g>
  	<path d="M330.6,434.2l21.4-21.4c7-7.4,10.6-16.1,10.6-26c0-10.1-3.5-18.7-10.6-25.7L213.3,222.3L352,83.6c7-7,10.6-15.6,10.6-25.7 c0-9.9-3.5-18.6-10.6-26l-21.4-21.1c-7.2-7.3-15.9-10.9-26-10.9c-10.3,0-18.8,3.6-25.7,10.8L93,196.6c-7.2,6.9-10.8,15.4-10.8,25.7 c0,10.1,3.6,18.8,10.8,26l185.9,185.9c7,7,15.6,10.6,25.7,10.6C314.5,444.7,323.2,441.2,330.6,434.2z"/>
  </g>
</svg>
