<?xml version="1.0" encoding="utf-8"?>
<!-- Generator: Adobe Illustrator 24.1.0, SVG Export Plug-In . SVG Version: 6.00 Build 0)  -->
<svg version="1.1" id="Capa_1" xmlns="http://www.w3.org/2000/svg" xmlns:xlink="http://www.w3.org/1999/xlink" x="0px" y="0px"
	 viewBox="0 0 444.8 444.8" style="enable-background:new 0 0 444.8 444.8;" xml:space="preserve">
<style type="text/css">
	.st0{fill:#FFFFFF;}
</style>
<g>
	<path class="st0" d="M434.3,114.2l-21.4-21.4c-7.4-7-16.1-10.6-26-10.6c-10.1,0-18.7,3.5-25.7,10.6L222.4,231.5L83.7,92.8
		c-7-7-15.6-10.6-25.7-10.6c-9.9,0-18.6,3.5-26,10.6l-21.1,21.4C3.6,121.4,0,130.1,0,140.2c0,10.3,3.6,18.8,10.8,25.7l185.9,185.9
		c6.9,7.2,15.4,10.8,25.7,10.8c10.1,0,18.8-3.6,26-10.8l185.9-185.9c7-7,10.6-15.6,10.6-25.7C444.8,130.3,441.3,121.6,434.3,114.2z"
		/>
</g>
</svg>
