<svg version="1.1" xmlns="http://www.w3.org/2000/svg" xmlns:xlink="http://www.w3.org/1999/xlink" x="0px" y="0px" viewBox="0 0 444.8 444.8" xml:space="preserve">
  <g>
  	<path d="M114.3,10.6L92.9,32c-7,7.4-10.6,16.1-10.6,26c0,10.1,3.5,18.7,10.6,25.7l138.7,138.8L92.9,361.2c-7,7-10.6,15.6-10.6,25.7 c0,9.9,3.5,18.6,10.6,26l21.4,21.1c7.2,7.3,15.9,10.9,26,10.9c10.3,0,18.8-3.6,25.7-10.8l185.9-185.9c7.2-6.9,10.8-15.4,10.8-25.7 c0-10.1-3.6-18.8-10.8-26L166,10.6C159,3.6,150.4,0,140.3,0C130.4,0.1,121.7,3.6,114.3,10.6z"/>
  </g>
</svg>
