<svg version="1.1" xmlns="http://www.w3.org/2000/svg" xmlns:xlink="http://www.w3.org/1999/xlink" x="0px" y="0px" viewBox="0 0 473 473" xml:space="preserve">
	<g>
		<path d="M367.5,388.3c0,2.7-1.7,5.2-4.2,6.3c-2.5,1.1-5.5,0.5-7.4-1.5l-136-136c-1.3-1.3-2-3-2-4.8c0-1.8,0.7-3.5,2-4.8l136-135.6 c1.9-1.9,4.9-2.5,7.4-1.5c2.5,1.1,4.2,3.5,4.2,6.3v74.7h53.9l0-166.9C421.4,11,410.8,0,397.3,0h-59.8l0,0c0,22.3-18.3,40-40.6,40 H176.7c-22.4,0-40-17.7-40-40l0,0H76.2C62.6,0,51.6,11,51.6,24.6v423.1c0,13.6,11,25.2,24.6,25.2h321c13.6,0,24.1-11.6,24.1-25.2 l0-134h-53.9V388.3z M131.2,136.1h113c12.5,0,12.5,8.2,12.5,18.1s0,18.2-13.1,18.2H130.5c-13.5,0-13.5-8.2-13.5-18.2 S117,136.1,131.2,136.1z M131.2,234.4h49.7c12.5,0,12.5,8.2,12.5,18.1c0,9.9,0,18.2-13.1,18.2h-49.8c-13.5,0-13.5-8.2-13.5-18.2 C117,242.5,117,234.4,131.2,234.4z M243.6,368.9H130.2c-13.5,0-13.5-8.2-13.5-18.2c0-9.9,0-18.1,14.2-18.1h113.2 c12.5,0,12.5,8.2,12.5,18.1C256.8,360.7,256.8,368.9,243.6,368.9z"/>
	</g>
</svg>
