<svg version="1.1" xmlns="http://www.w3.org/2000/svg" xmlns:xlink="http://www.w3.org/1999/xlink" x="0px" y="0px" viewBox="0 0 473 473" xml:space="preserve">
	<g>
		<path d="M147.2,123.2h102.6c7.8,0,14.1-6.3,14.1-14.1V50c0-7.8-6.3-14.1-14.1-14.1h-15.5C234.3,16.1,218.2,0,198.3,0 c-19.9,0-36,16.1-36.1,35.9h-14.9c-7.8,0-14.1,6.3-14.1,14.1v59C133.2,116.8,139.4,123.2,147.2,123.2z M198.3,20 c8.8,0,16,7.1,16.1,15.9h-32.2C182.3,27.1,189.5,20,198.3,20z"/>
		<path d="M331.6,382.1c2,2,3.1,4.6,3.1,7.5c0,2.9-1.1,5.6-3.1,7.6l-6.5,6.5c-2,2-4.7,3.1-7.6,3.1c-2.9,0-5.6-1.1-7.6-3.1 l-71.2-71.2c-2-2-3.2-4.8-3.1-7.7c0-2.9,1.1-5.6,3.1-7.6l71.2-71.2c2-2,4.7-3.1,7.6-3.1c2.9,0,5.6,1.1,7.6,3.2l6.5,6.5 c2,2,3.1,4.8,3.1,7.7s-1.1,5.6-3.1,7.7L290,309.4h66l0-219.5c0-11.6-9-21-20.6-21h-51.1v40.4c0,19.1-15.6,34.2-34.7,34.2H147 c-19.1,0-34.2-15.1-34.2-34.2V68.9H61.2c-11.6,0-21,9.4-21,21v361.5c0,11.6,9.4,21.6,21,21.6h274.2c11.6,0,20.6-9.9,20.6-21.6 l0-111.2h-66.5L331.6,382.1z M108.1,185.2h181.7c10.7,0,10.7,7,10.7,15.5s0,15.5-11.2,15.5H107.5c-11.5,0-11.5-7-11.5-15.5 S96,185.2,108.1,185.2z M192.9,384h-85.6c-11.5,0-11.5-7-11.5-15.5c0-8.5,0-15.5,12.2-15.5h85.5c10.7,0,10.7,7,10.7,15.5 C204.2,377,204.2,384,192.9,384z M192.9,300.1h-85.4c-11.5,0-11.5-7-11.5-15.5c0-8.5,0-15.5,12.2-15.5h85.3 c10.7,0,10.7,7,10.7,15.5C204.2,293.1,204.2,300.1,192.9,300.1z"/>
		<path d="M421.8,309.4l0.3,0.1H356l0,30.8h65.9c5.9,0,10.9-5.1,10.9-11.1V320C432.9,314.1,427.7,309.4,421.8,309.4z"/>
	</g>
</svg>
