<?xml version="1.0" encoding="utf-8"?>
<!-- Generator: Adobe Illustrator 24.1.0, SVG Export Plug-In . SVG Version: 6.00 Build 0)  -->
<svg version="1.1" id="Capa_1" xmlns="http://www.w3.org/2000/svg" xmlns:xlink="http://www.w3.org/1999/xlink" x="0px" y="0px"
	 viewBox="0 0 444.8 444.8" style="enable-background:new 0 0 444.8 444.8;" xml:space="preserve">
<style type="text/css">
	.st0{fill:#FFFFFF;}
</style>
<g>
	<path class="st0" d="M355,289.4L341.6,276c-4.6-4.4-10.1-6.6-16.3-6.6c-6.3,0-11.7,2.2-16.1,6.6l-86.8,86.8L135.6,276
		c-4.4-4.4-9.8-6.6-16.1-6.6c-6.2,0-11.6,2.2-16.3,6.6l-13.2,13.4c-4.6,4.5-6.8,9.9-6.8,16.3c0,6.4,2.3,11.8,6.8,16.1L206.3,438
		c4.3,4.5,9.6,6.8,16.1,6.8c6.3,0,11.8-2.3,16.3-6.8L355,321.7c4.4-4.4,6.6-9.8,6.6-16.1C361.5,299.5,359.3,294,355,289.4z"/>
</g>
<g>
	<path class="st0" d="M89.8,155.4l13.4,13.4c4.6,4.4,10.1,6.6,16.3,6.6c6.3,0,11.7-2.2,16.1-6.6L222.4,82l86.8,86.8
		c4.4,4.4,9.8,6.6,16.1,6.6c6.2,0,11.6-2.2,16.3-6.6l13.2-13.4c4.6-4.5,6.8-9.9,6.8-16.3c0-6.4-2.3-11.8-6.8-16.1L238.5,6.8
		c-4.3-4.5-9.6-6.8-16.1-6.8c-6.3,0-11.8,2.3-16.3,6.8L89.8,123.1c-4.4,4.4-6.6,9.8-6.6,16.1C83.3,145.3,85.5,150.8,89.8,155.4z"/>
</g>
</svg>
